<?xml version="1.0" encoding="UTF-8"?>
<svg width="396px" height="323px" viewBox="0 0 396 323" version="1.1" xmlns="http://www.w3.org/2000/svg" xmlns:xlink="http://www.w3.org/1999/xlink">
    <!-- Generator: Sketch 63.1 (92452) - https://sketch.com -->
    <title>Group</title>
    <desc>Created with Sketch.</desc>
    <g id="Page-1" stroke="none" stroke-width="1" fill="none" fill-rule="evenodd">
        <g id="logo_petal_strokes" transform="translate(-58.000000, -92.000000)" fill-rule="nonzero">
            <g id="Group" transform="translate(58.000000, 97.000000)">
                <path d="M224.383,163.93 L222.931,182.447 L231.831,166.108 C257.431,119.271 242.542,39.756 201.151,2.541 L198.059,0 L195.517,2.9 C125.988,77.7 120.36,180.45 180.995,271.039 L195.155,292.279 L187.893,267.771 C164.293,187.349 156.85,119.816 196.97,53.01 C213.309,82.419 228.195,118.545 224.383,163.93 Z" id="Path" stroke="#3D9846" stroke-width="6" fill="#3D9846" stroke-dasharray="1000"></path>
                <path d="M390.674,117.456 C296.636,122.902 198.423,179.543 204.414,291.193 L205.866,317.516 L212.22,291.916 C235.457,197.152 298.997,154.672 353.64,153.401 C342.203,181.901 328.225,202.235 309.707,216.758 C294.095,228.921 277.756,240.54 261.962,251.795 C255.062,256.695 248.162,261.595 241.448,266.495 L224.02,279.021 L244.72,273.393 C329.681,250.337 381.42,198.054 394.672,121.993 L395.579,117.093 L390.674,117.456 Z" id="Path" fill="#68BE66"></path>
                <path d="M42.48,160.118 L125.262,182.629 L116.911,172.829 C84.234,135.066 39.939,127.804 4.9,125.626 L0,125.444 L0.545,130.164 C4.9,167.38 22.511,202.054 51.376,230.374 C80.059,258.694 117.276,278.119 158.847,286.651 L186.986,292.46 L161.386,279.389 C105.111,250.344 63.176,218.755 42.48,160.118 Z" id="Path" fill="#357037"></path>
                <path d="M245.986,244.352 C250.525,236.183 256.516,228.921 262.869,222.022 C269.353606,215.297227 276.202937,208.933963 283.386,202.961 C290.569974,196.975851 298.085558,191.400344 305.897,186.261 C313.704,181.178 321.873,176.461 330.768,173.372 C322.633717,177.836584 314.863989,182.935374 307.531,188.621 C300.086,194.247 292.823,199.87 285.744,205.87 C278.664,211.679 271.584,217.852 264.867,224.024 C258.202416,230.445782 251.899072,237.2322 245.986,244.352 L245.986,244.352 Z" id="Path" fill="#68BE66"></path>
                <path d="M64.083,180.632 C71.1324462,183.610765 77.8802771,187.258096 84.234,191.524 C90.769,195.699 96.76,200.238 102.934,204.958 C108.925,209.678 114.734,214.58 120.362,219.844 C126.048621,224.976935 131.106593,230.76601 135.43,237.09 C129.984,231.644 124.356,226.742 118.547,221.841 C112.738,217.121 106.747,212.401 100.756,207.681 C94.765,202.961 88.772,198.241 82.783,193.703 C76.609,189.346 70.437,184.989 64.083,180.632 Z" id="Path" fill="#68BE66"></path>
            </g>
        </g>
    </g>
</svg>